<?xml version="1.0" encoding="UTF-8"?>
<svg width="31px" height="25px" viewBox="0 0 31 25" version="1.1" xmlns="http://www.w3.org/2000/svg" xmlns:xlink="http://www.w3.org/1999/xlink">
    <title>ph--code-bold</title>
    <g id="Page-1" stroke="none" stroke-width="1" fill="none" fill-rule="evenodd">
        <g id="onepage_desktop" transform="translate(-308, -998)" fill="#FFFFFF" fill-rule="nonzero">
            <g id="SERVICIOS" transform="translate(249, 858)">
                <g id="develop" transform="translate(0, 125)">
                    <g id="ph--code-bold" transform="translate(59, 15)">
                        <path d="M8.459966,8.65271122 L3.84244369,12.5001613 L8.459966,16.3476113 C8.87666761,16.6891013 9.07822202,17.2278303 8.98799688,17.7589699 C8.89777174,18.2901094 8.52962731,18.7320666 8.02353458,18.9168063 C7.51744185,19.1015461 6.95114608,19.0006889 6.53995672,18.6525814 L0.539927741,13.6526463 C0.197816739,13.3676603 0,12.9454171 0,12.5001613 C0,12.0549054 0.197816739,11.6326622 0.539927741,11.3476762 L6.53995672,6.34774114 C7.17708746,5.82560782 8.11607284,5.91495585 8.64329141,6.54788145 C9.17050998,7.18080705 9.08866857,8.12045987 8.459966,8.65271122 M30.4600723,11.3476762 L24.4600433,6.34774114 C24.0488539,5.99963364 23.4825582,5.89877646 22.9764654,6.0835162 C22.4703727,6.26825593 22.1022283,6.71021312 22.0120031,7.24135266 C21.921778,7.7724922 22.1233324,8.31122118 22.540034,8.65271122 L27.1575563,12.5001613 L22.540034,16.3476113 C22.1233324,16.6891013 21.921778,17.2278303 22.0120031,17.7589699 C22.1022283,18.2901094 22.4703727,18.7320666 22.9764654,18.9168063 C23.4825582,19.1015461 24.0488539,19.0006889 24.4600433,18.6525814 L30.4600723,13.6526463 C30.8021833,13.3676603 31,12.9454171 31,12.5001613 C31,12.0549054 30.8021833,11.6326622 30.4600723,11.3476762 M20.0125218,0.0903223926 C19.6385683,-0.0456691429 19.2259027,-0.0275060699 18.8653437,0.140814317 C18.5047847,0.309134704 18.2258808,0.613818237 18.0900125,0.987810739 L10.0899739,22.9875251 C9.80759927,23.7658767 10.2093195,24.6258112 10.9874782,24.9087501 C11.1515515,24.9693093 11.3250877,25 11.4999807,25 C12.1308864,25 12.6944281,24.6054398 12.9099875,24.0125118 L20.9100261,2.01279743 C21.0460201,1.63885062 21.0278567,1.22619239 20.8595333,0.865639811 C20.6912099,0.505087228 20.386521,0.226188233 20.0125218,0.0903223926" id="Shape"></path>
                    </g>
                </g>
            </g>
        </g>
    </g>
</svg>