<?xml version="1.0" encoding="UTF-8"?>
<svg width="26px" height="26px" viewBox="0 0 26 26" version="1.1" xmlns="http://www.w3.org/2000/svg" xmlns:xlink="http://www.w3.org/1999/xlink">
    <title>Combined Shape</title>
    <g id="Symbols" stroke="none" stroke-width="1" fill="none" fill-rule="evenodd">
        <g id="pildora_github" transform="translate(-17, -9)" fill="#5C47E0">
            <g id="brand-github-filled" transform="translate(9, 9)">
                <path d="M21,0 C28.1797017,0 34,5.82029825 34,13 C34,19.6993455 28.9538905,25.2151036 22.4257791,25.9231767 C22.2768878,25.9393611 22.1199286,25.9541514 21.9551619,25.9661547 C21.9352945,25.9670931 21.9172864,25.9683532 21.899268,25.9695768 C21.7278595,25.9818156 21.5468093,25.9905398 21.3566284,25.9954476 C21.2377411,25.9984103 21.1190629,26 21,26 C20.8651293,26 20.7307523,25.9979602 20.5968977,25.9939098 L21,26 C20.8323333,26 20.6646667,25.9969327 20.497,25.990798 C20.4053946,25.9870466 20.3141823,25.9826494 20.2232276,25.9773226 C20.177,25.9754424 20.131,25.9726117 20.085,25.96955 C20.0737781,25.9677242 20.0617457,25.9668768 20.049718,25.9660131 C19.3393333,25.918015 18.6296667,25.8139723 17.92,25.6549787 C17.8597208,25.6371615 17.8036979,25.6167028 17.75161,25.593887 C12.1304882,24.1534673 8,19.0611458 8,13 C8,5.82029825 13.8202983,0 21,0 Z M17.648,6.066 C16.215,5.245 15.106,4.987 14.315,5.1 L14.161,5.13 L14.017,5.177 C13.7816134,5.27466774 13.5923964,5.45851939 13.488,5.691 L13.382,5.944 L13.282,6.226 C13.0066671,7.07943179 12.9567167,7.98956279 13.137,8.868 L13.182,9.064 L13.06,9.227 L12.908,9.449 C12.3165698,10.356753 12.0011582,11.4165777 12,12.5 L12.004,12.792 L12.014,13.102 C12.186,16.668 13.913,18.531 16.889,19.241 L16.997,19.265 L16.978,19.385 L16.961,19.57 C16.9454455,19.8447786 16.952469,20.1203704 16.982,20.394 L17,20.562 L16.999,21.24 C15.75,21.508 15.15,21.128 14.39,20.049 L13.852,19.28 C13.356,18.609 12.924,18.229 12.282,18.041 C11.7585837,17.9029948 11.2203775,18.2065251 11.067669,18.7258422 C10.9149606,19.2451593 11.2031951,19.7917097 11.718,19.959 L11.766,19.978 C11.9,20.043 12.075,20.226 12.355,20.622 L12.89,21.388 C13.97,22.842 15.182,23.526 17,23.266 L17,24 L17.007,24.117 C17.0621277,24.5849409 17.0660203,25.2935819 17.75161,25.593887 C18.4939468,25.7830667 19.2618798,25.9094412 20.049718,25.9660131 C20.061,25.967937 20.073,25.9687514 20.085,25.96955 L20.049718,25.9660131 C20.1074484,25.9701586 20.1652858,25.9739292 20.2232276,25.9773226 L20.085,25.96955 C20.2223333,25.9786906 20.3596667,25.9857732 20.497,25.990798 L20.2232276,25.9773226 C20.3473129,25.9845897 20.4718774,25.9901267 20.5968977,25.9939098 L21,26 C21.1223415,26 21.2411676,25.9984271 21.3566284,25.9954476 C21.5380819,25.9903878 21.7191904,25.9818052 21.899268,25.9695768 C21.9187817,25.9687643 21.9370191,25.9674764 21.9551619,25.9661547 L21.899268,25.9695768 C22.0757849,25.9575901 22.2513113,25.9421004 22.4257791,25.9231767 C23.1972506,25.8354295 23.7770388,25.6922596 24.2479401,25.583786 C24.9728801,25.4167938 24.9999331,24.5069748 25,24 L25.003,20.166 L25.005,19.953 L25.001,19.588 L24.993,19.431 L24.979,19.27 L25.111,19.241 L25.356,19.18 C28.341,18.383 30,16.355 30,12.5 L29.993,12.228 L29.97,11.933 C29.87,10.954 29.514,10.021 28.94,9.226 L28.817,9.063 L28.863,8.867 L28.91,8.6 C29.0600341,7.61200389 28.9222025,6.60170164 28.513,5.69 C28.4083645,5.45733439 28.2187628,5.27345652 27.983,5.176 L27.839,5.129 L27.789,5.118 L27.713,5.104 L27.566,5.087 L27.402,5.079 C26.567,5.057 25.465,5.387 24.08,6.227 L23.919,6.327 L23.523,6.244 L23.067,6.164 C21.5439286,5.9244177 19.9907975,5.95148752 18.477,6.244 L18.08,6.327 L17.92,6.227 Z" id="Combined-Shape"></path>
            </g>
        </g>
    </g>
</svg>